<svg width="1201" height="1538" viewBox="0 0 1201 1538" fill="none" xmlns="http://www.w3.org/2000/svg">
<line x1="14.5" y1="39.0485" x2="14.4999" y2="1500.23" stroke="black"/>
<line x1="1" y1="26.038" x2="1.00006" y2="1513.24" stroke="black" stroke-width="2"/>
<line x1="1184.5" y1="39.0485" x2="1184.5" y2="1500.23" stroke="black"/>
<line x1="1199" y1="26.038" x2="1199" y2="1513.24" stroke="black" stroke-width="2"/>
<line x1="37" y1="15.5299" x2="1161" y2="15.53" stroke="black"/>
<line x1="25" y1="2.01937" x2="1174" y2="2.01927" stroke="black" stroke-width="2"/>
<line x1="24" y1="1536.26" x2="1175" y2="1536.26" stroke="black" stroke-width="2"/>
<line x1="37" y1="1522.75" x2="1161" y2="1522.75" stroke="black"/>
<path d="M1185 1500.23C1170.7 1502.28 1164.06 1508.41 1161 1523.25" stroke="black"/>
<path d="M1198 1512.24C1183.7 1514.28 1177.06 1520.42 1174 1535.26" stroke="black" stroke-width="2"/>
<path d="M37.0703 1523.12C34.932 1509.39 28.7782 1503.06 13.9999 1500.23" stroke="black"/>
<path d="M25.1683 1536.22C23.0167 1521.92 16.8337 1515.33 1.98893 1512.37" stroke="black" stroke-width="2"/>
<path d="M13.9995 39.0485C28.0234 36.9904 34.5382 30.7907 37.5536 15.7992" stroke="black"/>
<path d="M0.99996 27.0388C15.8842 24.7349 22.7989 17.7961 25.9999 1.01778" stroke="black" stroke-width="2"/>
<path d="M1161 15.0242C1163.3 29.5 1169.7 36.1482 1185 39.0485" stroke="black"/>
<path d="M1172.81 1.84294C1175.41 17.0386 1182.66 24.0112 1200 27.0388" stroke="black" stroke-width="2"/>
</svg>
