<svg width="380" height="1013" viewBox="0 0 380 1013" fill="none" xmlns="http://www.w3.org/2000/svg">
<line x1="9.5" y1="20" x2="9.49996" y2="995" stroke="black"/>
<line x1="2" y1="12" x2="2.00002" y2="1001" stroke="black" stroke-width="2"/>
<line x1="370.5" y1="20" x2="370.5" y2="995" stroke="black"/>
<path d="M378 12L378 1002" stroke="black" stroke-width="2"/>
<path d="M17 11L362 11" stroke="black"/>
<line x1="11" y1="2" x2="368" y2="2.00003" stroke="black" stroke-width="2"/>
<line x1="11" y1="1011" x2="368" y2="1011" stroke="black" stroke-width="2"/>
<line x1="17" y1="1003.5" x2="362" y2="1003.5" stroke="black"/>
<path d="M371 995C365.638 995.978 363.149 996.911 362 1004" stroke="black"/>
<path d="M379 1001C372.739 1001 368.36 1001.68 367 1012" stroke="black" stroke-width="2"/>
<path d="M17.0004 1004C16.2728 998.575 14.1392 996.084 9.00068 995" stroke="black"/>
<path d="M12.0005 1012C11.0007 1004.76 8.06693 1001.44 1.0005 1000" stroke="black" stroke-width="2"/>
<path d="M9.00081 20.0135C13.0123 19.2595 16.1389 16.008 17.0003 10.5" stroke="black"/>
<path d="M1.00004 13C7.55124 11.9417 10.5938 8.74183 12.0002 1" stroke="black" stroke-width="2"/>
<path d="M361.5 10.5C362.267 15.7002 365.675 19.0332 370.999 20" stroke="black"/>
<path d="M367 1.00001C368.107 8.32165 371.308 11.6442 379.001 13" stroke="black" stroke-width="2"/>
</svg>
